<?xml version="1.0" encoding="UTF-8"?><svg id="Laag_2" xmlns="http://www.w3.org/2000/svg" viewBox="0 0 140.65 406.48"><g id="Laag_1-2"><path d="M70.03,.91c-12.3,4.7-18.6,18.8-25.1,56.2-1.1,6.6-2.5,14.2-3,16.8-.6,2.7-1,6.1-1,7.6s-.4,3.1-.8,3.6c-.5,.6-1.4,3-2.1,5.5-.8,2.5-1.7,5.6-2.1,7-.5,1.4-1.6,5.9-2.5,10-1.6,7.6-2.7,12.5-4.5,20.2-.5,2.4-1.2,5.9-1.5,7.8-.8,4.9-2.1,12.4-3.4,19.7-7.4,42.5-12.9,87.8-16.2,133.3-1.4,20.7-3.5,40.3-5.5,52.5-.9,5.5-1.9,15.2-2.1,21.6-.5,10.4-.3,12,1.6,15.7,6.6,13,22.2,16.1,32.4,6.4,5.7-5.3,6.5-8.3,9.7-34.7,.7-5,1.6-11.9,2.1-15.5s1.6-12.4,2.4-19.5c.8-7.2,1.9-16.2,2.5-20,.5-3.9,1.2-9.1,1.5-11.7,.3-2.5,1.1-5.1,1.8-5.6,.7-.6,6.8-1.5,13.7-2.1,6.9-.7,13.7-1.4,15.1-1.7,3.4-.7,3.7,.7,5,18.6,1.2,18.5,2.5,34.5,4.4,53.5,.8,8.8,2,21.3,2.6,27.9,1.6,18.6,4.8,25.4,14.2,30.1,10.9,5.4,23.1,1.3,28.8-9.7,3.5-6.9,3.5-13-.1-50.8-.5-5.8-1.9-22-3-36-3.3-43.7-4.8-59.6-9-95.5-2.9-25.4-3.3-30.5-7-77-3.8-48-6.4-68.7-11.7-95.5-4.3-21.8-9.9-32.7-19.4-37.6-4.2-2.1-13.5-2.7-17.8-1.1Zm4.5,151c1.3,18.1,2.8,33.6,4.6,50.2,3,28.1,3.3,25.8-2.7,26.7-2.7,.4-7.4,1.4-10.3,2.1-6.7,1.8-6.9,1.6-5.3-10.6,2.2-16.7,4.1-30.1,5.2-36.7,2-12,2.8-17.5,3.9-25.5,2.2-15.5,2.1-15.1,3.2-13.2,.5,1,1.1,4.1,1.4,7Z"/></g></svg>