<?xml version="1.0" encoding="UTF-8"?><svg id="Laag_2" xmlns="http://www.w3.org/2000/svg" viewBox="0 0 128.64 497.69"><g id="Laag_1-2"><path d="M68.01,2.06c-3,1.2-7.7,3.6-10.5,5.4-6.1,3.9-17.4,15.7-22.2,23.3C15.11,62.26,5.11,119.66,5.01,203.96c0,17.9-.5,41-1,51.5C-.39,337.06-1.09,393.56,1.51,438.96c1.6,27.8,2.6,33.4,7.6,41.2,8.1,12.6,31.4,20.6,47.8,16.4,10-2.6,17-6.9,26.5-16.4,16.9-17.1,34.6-45,40-63.1,3.7-12.5,3.2-17.9-3.1-37.9-2.8-8.8-3.4-9.3-9-7.1-8.3,3.4-12.4,6-18,11.6-5.4,5.3-7.4,8.6-14.2,22.2-8.6,17.4-17.5,31.1-25.3,39.4l-5.1,5.2-.7-3c-.5-1.7-1.3-15.8-1.9-31.5-1.2-31.2-.3-82.9,2.4-140,.8-17.9,1.9-55.5,2.5-83.5,.9-47.5,1.5-58.8,4.1-77,4.4-30.3,9.2-47,17.7-60.4,2.8-4.6,3.6-5.2,4.7-4,1.7,1.7,6.5,16.4,9.5,28.9,.5,1.9,1.3,5.3,1.9,7.5,3.9,15.2,6.1,25.1,7.1,32,2.4,17,4.4,23.2,8.3,26,3.1,2.2,4.2,1.9,8.6-2.1,7.9-7.1,12.7-16.9,15.1-30.7,3.2-19.1-6.3-72.3-16.7-93C103.41,3.86,83.81-4.04,68.01,2.06Z"/></g></svg>