<?xml version="1.0" standalone="no"?>
<!DOCTYPE svg PUBLIC "-//W3C//DTD SVG 20010904//EN"
 "http://www.w3.org/TR/2001/REC-SVG-20010904/DTD/svg10.dtd">
<svg version="1.0" xmlns="http://www.w3.org/2000/svg"
 width="792.000000pt" height="615.000000pt" viewBox="0 0 792.000000 615.000000"
 preserveAspectRatio="xMidYMid meet">

<g transform="translate(0.000000,615.000000) scale(0.100000,-0.100000)"
fill="#000000" stroke="none">
<path d="M880 5979 c-30 -12 -77 -36 -105 -54 -61 -39 -174 -157 -222 -233
-202 -315 -302 -889 -303 -1732 0 -179 -5 -410 -10 -515 -44 -816 -51 -1381
-25 -1835 16 -278 26 -334 76 -412 81 -126 314 -206 478 -164 100 26 170 69
265 164 169 171 346 450 400 631 37 125 32 179 -31 379 -28 88 -34 93 -90 71
-83 -34 -124 -60 -180 -116 -54 -53 -74 -86 -142 -222 -86 -174 -175 -311
-253 -394 l-51 -52 -7 30 c-5 17 -13 158 -19 315 -12 312 -3 829 24 1400 8
179 19 555 25 835 9 475 15 588 41 770 44 303 92 470 177 604 28 46 36 52 47
40 17 -17 65 -164 95 -289 5 -19 13 -53 19 -75 39 -152 61 -251 71 -320 24
-170 44 -232 83 -260 31 -22 42 -19 86 21 79 71 127 169 151 307 32 191 -63
723 -167 930 -79 158 -275 237 -433 176z"/>
<path d="M2401 5487 c-123 -47 -186 -188 -251 -562 -11 -66 -25 -142 -30 -168
-6 -27 -10 -61 -10 -76 0 -15 -4 -31 -8 -36 -5 -6 -14 -30 -21 -55 -8 -25 -17
-56 -21 -70 -5 -14 -16 -59 -25 -100 -16 -76 -27 -125 -45 -202 -5 -24 -12
-59 -15 -78 -8 -49 -21 -124 -34 -197 -74 -425 -129 -878 -162 -1333 -14 -207
-35 -403 -55 -525 -9 -55 -19 -152 -21 -216 -5 -104 -3 -120 16 -157 66 -130
222 -161 324 -64 57 53 65 83 97 347 7 50 16 119 21 155 5 36 16 124 24 195 8
72 19 162 25 200 5 39 12 91 15 117 3 25 11 51 18 56 7 6 68 15 137 21 69 7
137 14 151 17 34 7 37 -7 50 -186 12 -185 25 -345 44 -535 8 -88 20 -213 26
-279 16 -186 48 -254 142 -301 109 -54 231 -13 288 97 35 69 35 130 -1 508 -5
58 -19 220 -30 360 -33 437 -48 596 -90 955 -29 254 -33 305 -70 770 -38 480
-64 687 -117 955 -43 218 -99 327 -194 376 -42 21 -135 27 -178 11z m45 -1510
c13 -181 28 -336 46 -502 30 -281 33 -258 -27 -267 -27 -4 -74 -14 -103 -21
-67 -18 -69 -16 -53 106 22 167 41 301 52 367 20 120 28 175 39 255 22 155 21
151 32 132 5 -10 11 -41 14 -70z"/>
<path d="M4860 5339 c-47 -19 -69 -48 -98 -134 -41 -122 -71 -356 -92 -735
-13 -242 -23 -390 -60 -845 -29 -372 -34 -492 -33 -860 1 -295 5 -434 17 -530
13 -110 14 -185 6 -485 -11 -420 -4 -593 27 -662 57 -127 243 -147 326 -36 46
62 49 86 62 508 8 223 16 448 19 500 3 52 10 205 16 340 15 384 28 581 39 594
13 15 117 5 281 -28 l115 -22 -5 -255 c-3 -140 -5 -479 -5 -754 0 -528 2 -554
48 -654 29 -61 93 -101 163 -101 42 0 61 6 100 33 88 60 109 133 124 432 27
557 48 2475 30 2770 -19 324 -52 635 -80 770 -6 28 -13 62 -16 77 -10 46 -74
48 -122 5 -65 -60 -104 -276 -122 -675 -12 -252 -27 -510 -39 -697 -26 -384
-33 -460 -41 -476 -9 -16 -15 -16 -67 -4 -58 13 -137 25 -313 48 l-95 13 3
449 c2 327 -1 518 -12 696 -16 246 -39 484 -56 569 -4 25 -11 62 -15 82 -11
58 -56 86 -105 67z"/>
<path d="M3140 5250 c-71 -24 -126 -83 -135 -144 -23 -148 106 -253 363 -297
40 -7 75 -15 77 -19 2 -4 0 -47 -6 -96 -52 -471 -79 -1515 -51 -1954 13 -196
26 -412 43 -700 16 -287 30 -443 42 -485 17 -61 99 -138 162 -152 80 -18 139
0 201 62 83 83 83 87 54 540 -6 88 -15 234 -20 325 -5 91 -15 253 -22 360 -17
252 -16 1017 1 1300 7 118 15 342 18 496 l5 281 162 -1 c162 -1 162 -1 221 29
172 88 162 318 -17 395 -46 20 -79 24 -258 31 -241 11 -463 27 -539 40 -91 15
-239 10 -301 -11z"/>
<path d="M6233 5200 c-47 -24 -72 -59 -99 -135 -15 -41 -18 -82 -17 -231 1
-179 7 -235 45 -429 37 -189 125 -473 238 -775 17 -47 52 -148 76 -225 78
-242 90 -269 146 -320 28 -25 54 -45 58 -45 4 0 24 -7 44 -15 31 -13 34 -18
26 -38 -5 -12 -34 -103 -65 -202 -31 -99 -65 -205 -74 -235 -20 -59 -29 -88
-98 -310 -165 -532 -293 -1020 -354 -1350 -25 -136 -38 -202 -68 -348 -29
-140 -28 -205 4 -269 36 -71 115 -123 187 -123 103 0 198 76 229 184 8 26 49
226 88 431 25 126 86 402 116 520 51 198 127 476 144 525 5 14 18 57 29 95 23
77 112 364 135 435 8 25 24 74 35 110 41 132 136 429 187 585 29 88 83 255
120 370 37 116 75 235 85 265 10 30 33 102 50 160 17 58 42 141 56 185 13 44
29 98 35 120 6 22 15 51 20 65 12 37 85 343 105 440 10 49 18 134 18 200 1
126 -10 162 -66 203 -39 29 -123 34 -168 9 -71 -39 -104 -102 -228 -442 -49
-134 -143 -424 -213 -660 -61 -205 -132 -411 -140 -403 -4 4 -24 53 -44 108
-20 55 -48 132 -62 170 -102 281 -166 491 -213 703 -6 23 -15 63 -21 90 -6 26
-14 65 -19 87 -37 168 -90 349 -123 414 -41 84 -130 118 -204 81z"/>
</g>
</svg>
