<?xml version="1.0" encoding="UTF-8"?><svg id="Laag_2" xmlns="http://www.w3.org/2000/svg" xmlns:xlink="http://www.w3.org/1999/xlink" viewBox="0 0 753.42 584.96"><defs><style>.cls-1{filter:url(#drop-shadow-1);}</style><filter id="drop-shadow-1" filterUnits="userSpaceOnUse"><feOffset dx="4" dy="4"/><feGaussianBlur result="blur" stdDeviation="4"/><feFlood flood-color="#000" flood-opacity=".75"/><feComposite in2="blur" operator="in"/><feComposite in="SourceGraphic"/></filter></defs><g id="Laag_1-2"><g class="cls-1"><path d="M68.01,2.06c-3,1.2-7.7,3.6-10.5,5.4-6.1,3.9-17.4,15.7-22.2,23.3C15.11,62.26,5.11,119.66,5.01,203.96c0,17.9-.5,41-1,51.5C-.39,337.06-1.09,393.56,1.51,438.96c1.6,27.8,2.6,33.4,7.6,41.2,8.1,12.6,31.4,20.6,47.8,16.4,10-2.6,17-6.9,26.5-16.4,16.9-17.1,34.6-45,40-63.1,3.7-12.5,3.2-17.9-3.1-37.9-2.8-8.8-3.4-9.3-9-7.1-8.3,3.4-12.4,6-18,11.6-5.4,5.3-7.4,8.6-14.2,22.2-8.6,17.4-17.5,31.1-25.3,39.4l-5.1,5.2-.7-3c-.5-1.7-1.3-15.8-1.9-31.5-1.2-31.2-.3-82.9,2.4-140,.8-17.9,1.9-55.5,2.5-83.5,.9-47.5,1.5-58.8,4.1-77,4.4-30.3,9.2-47,17.7-60.4,2.8-4.6,3.6-5.2,4.7-4,1.7,1.7,6.5,16.4,9.5,28.9,.5,1.9,1.3,5.3,1.9,7.5,3.9,15.2,6.1,25.1,7.1,32,2.4,17,4.4,23.2,8.3,26,3.1,2.2,4.2,1.9,8.6-2.1,7.9-7.1,12.7-16.9,15.1-30.7,3.2-19.1-6.3-72.3-16.7-93C103.41,3.86,83.81-4.04,68.01,2.06Z"/><path d="M220.11,51.26c-12.3,4.7-18.6,18.8-25.1,56.2-1.1,6.6-2.5,14.2-3,16.8-.6,2.7-1,6.1-1,7.6s-.4,3.1-.8,3.6c-.5,.6-1.4,3-2.1,5.5-.8,2.5-1.7,5.6-2.1,7-.5,1.4-1.6,5.9-2.5,10-1.6,7.6-2.7,12.5-4.5,20.2-.5,2.4-1.2,5.9-1.5,7.8-.8,4.9-2.1,12.4-3.4,19.7-7.4,42.5-12.9,87.8-16.2,133.3-1.4,20.7-3.5,40.3-5.5,52.5-.9,5.5-1.9,15.2-2.1,21.6-.5,10.4-.3,12,1.6,15.7,6.6,13,22.2,16.1,32.4,6.4,5.7-5.3,6.5-8.3,9.7-34.7,.7-5,1.6-11.9,2.1-15.5s1.6-12.4,2.4-19.5c.8-7.2,1.9-16.2,2.5-20,.5-3.9,1.2-9.1,1.5-11.7,.3-2.5,1.1-5.1,1.8-5.6,.7-.6,6.8-1.5,13.7-2.1,6.9-.7,13.7-1.4,15.1-1.7,3.4-.7,3.7,.7,5,18.6,1.2,18.5,2.5,34.5,4.4,53.5,.8,8.8,2,21.3,2.6,27.9,1.6,18.6,4.8,25.4,14.2,30.1,10.9,5.4,23.1,1.3,28.8-9.7,3.5-6.9,3.5-13-.1-50.8-.5-5.8-1.9-22-3-36-3.3-43.7-4.8-59.6-9-95.5-2.9-25.4-3.3-30.5-7-77-3.8-48-6.4-68.7-11.7-95.5-4.3-21.8-9.9-32.7-19.4-37.6-4.2-2.1-13.5-2.7-17.8-1.1Zm4.5,151c1.3,18.1,2.8,33.6,4.6,50.2,3,28.1,3.3,25.8-2.7,26.7-2.7,.4-7.4,1.4-10.3,2.1-6.7,1.8-6.9,1.6-5.3-10.6,2.2-16.7,4.1-30.1,5.2-36.7,2-12,2.8-17.5,3.9-25.5,2.2-15.5,2.1-15.1,3.2-13.2,.5,1,1.1,4.1,1.4,7Z"/><path d="M466.01,66.06c-4.7,1.9-6.9,4.8-9.8,13.4-4.1,12.2-7.1,35.6-9.2,73.5-1.3,24.2-2.3,39-6,84.5-2.9,37.2-3.4,49.2-3.3,86,.1,29.5,.5,43.4,1.7,53,1.3,11,1.4,18.5,.6,48.5-1.1,42-.4,59.3,2.7,66.2,5.7,12.7,24.3,14.7,32.6,3.6,4.6-6.2,4.9-8.6,6.2-50.8,.8-22.3,1.6-44.8,1.9-50s1-20.5,1.6-34c1.5-38.4,2.8-58.1,3.9-59.4,1.3-1.5,11.7-.5,28.1,2.8l11.5,2.2-.5,25.5c-.3,14-.5,47.9-.5,75.4,0,52.8,.2,55.4,4.8,65.4,2.9,6.1,9.3,10.1,16.3,10.1,4.2,0,6.1-.6,10-3.3,8.8-6,10.9-13.3,12.4-43.2,2.7-55.7,4.8-247.5,3-277-1.9-32.4-5.2-63.5-8-77-.6-2.8-1.3-6.2-1.6-7.7-1-4.6-7.4-4.8-12.2-.5-6.5,6-10.4,27.6-12.2,67.5-1.2,25.2-2.7,51-3.9,69.7-2.6,38.4-3.3,46-4.1,47.6-.9,1.6-1.5,1.6-6.7,.4-5.8-1.3-13.7-2.5-31.3-4.8l-9.5-1.3,.3-44.9c.2-32.7-.1-51.8-1.2-69.6-1.6-24.6-3.9-48.4-5.6-56.9-.4-2.5-1.1-6.2-1.5-8.2-1.1-5.8-5.6-8.6-10.5-6.7Z"/><path d="M294.01,74.96c-7.1,2.4-12.6,8.3-13.5,14.4-2.3,14.8,10.6,25.3,36.3,29.7,4,.7,7.5,1.5,7.7,1.9s0,4.7-.6,9.6c-5.2,47.1-7.9,151.5-5.1,195.4,1.3,19.6,2.6,41.2,4.3,70,1.6,28.7,3,44.3,4.2,48.5,1.7,6.1,9.9,13.8,16.2,15.2,8,1.8,13.9,0,20.1-6.2,8.3-8.3,8.3-8.7,5.4-54-.6-8.8-1.5-23.4-2-32.5s-1.5-25.3-2.2-36c-1.7-25.2-1.6-101.7,.1-130,.7-11.8,1.5-34.2,1.8-49.6l.5-28.1,16.2,.1q16.2,.1,22.1-2.9c17.2-8.8,16.2-31.8-1.7-39.5-4.6-2-7.9-2.4-25.8-3.1-24.1-1.1-46.3-2.7-53.9-4-9.1-1.5-23.9-1-30.1,1.1Z"/><path d="M603.31,79.96c-4.7,2.4-7.2,5.9-9.9,13.5-1.5,4.1-1.8,8.2-1.7,23.1,.1,17.9,.7,23.5,4.5,42.9,3.7,18.9,12.5,47.3,23.8,77.5,1.7,4.7,5.2,14.8,7.6,22.5,7.8,24.2,9,26.9,14.6,32,2.8,2.5,5.4,4.5,5.8,4.5s2.4,.7,4.4,1.5c3.1,1.3,3.4,1.8,2.6,3.8-.5,1.2-3.4,10.3-6.5,20.2s-6.5,20.5-7.4,23.5c-2,5.9-2.9,8.8-9.8,31-16.5,53.2-29.3,102-35.4,135-2.5,13.6-3.8,20.2-6.8,34.8-2.9,14-2.8,20.5,.4,26.9,3.6,7.1,11.5,12.3,18.7,12.3,10.3,0,19.8-7.6,22.9-18.4,.8-2.6,4.9-22.6,8.8-43.1,2.5-12.6,8.6-40.2,11.6-52,5.1-19.8,12.7-47.6,14.4-52.5,.5-1.4,1.8-5.7,2.9-9.5,2.3-7.7,11.2-36.4,13.5-43.5,.8-2.5,2.4-7.4,3.5-11,4.1-13.2,13.6-42.9,18.7-58.5,2.9-8.8,8.3-25.5,12-37,3.7-11.6,7.5-23.5,8.5-26.5s3.3-10.2,5-16,4.2-14.1,5.6-18.5c1.3-4.4,2.9-9.8,3.5-12s1.5-5.1,2-6.5c1.2-3.7,8.5-34.3,10.5-44,1-4.9,1.8-13.4,1.8-20,.1-12.6-1-16.2-6.6-20.3-3.9-2.9-12.3-3.4-16.8-.9-7.1,3.9-10.4,10.2-22.8,44.2-4.9,13.4-14.3,42.4-21.3,66-6.1,20.5-13.2,41.1-14,40.3-.4-.4-2.4-5.3-4.4-10.8s-4.8-13.2-6.2-17c-10.2-28.1-16.6-49.1-21.3-70.3-.6-2.3-1.5-6.3-2.1-9-.6-2.6-1.4-6.5-1.9-8.7-3.7-16.8-9-34.9-12.3-41.4-4.1-8.4-13-11.8-20.4-8.1Z"/></g></g></svg>