<?xml version="1.0" encoding="UTF-8"?><svg id="Laag_2" xmlns="http://www.w3.org/2000/svg" viewBox="0 0 136.98 436.54"><g id="Laag_1-2"><path d="M28.31,.59c-4.7,1.9-6.9,4.8-9.8,13.4-4.1,12.2-7.1,35.6-9.2,73.5-1.3,24.2-2.3,39-6,84.5C.41,209.19-.09,221.19,.01,257.99c.1,29.5,.5,43.4,1.7,53,1.3,11,1.4,18.5,.6,48.5-1.1,42-.4,59.3,2.7,66.2,5.7,12.7,24.3,14.7,32.6,3.6,4.6-6.2,4.9-8.6,6.2-50.8,.8-22.3,1.6-44.8,1.9-50s1-20.5,1.6-34c1.5-38.4,2.8-58.1,3.9-59.4,1.3-1.5,11.7-.5,28.1,2.8l11.5,2.2-.5,25.5c-.3,14-.5,47.9-.5,75.4,0,52.8,.2,55.4,4.8,65.4,2.9,6.1,9.3,10.1,16.3,10.1,4.2,0,6.1-.6,10-3.3,8.8-6,10.9-13.3,12.4-43.2,2.7-55.7,4.8-247.5,3-277-1.9-32.4-5.2-63.5-8-77-.6-2.8-1.3-6.2-1.6-7.7-1-4.6-7.4-4.8-12.2-.5-6.5,6-10.4,27.6-12.2,67.5-1.2,25.2-2.7,51-3.9,69.7-2.6,38.4-3.3,46-4.1,47.6-.9,1.6-1.5,1.6-6.7,.4-5.8-1.3-13.7-2.5-31.3-4.8l-9.5-1.3,.3-44.9c.2-32.7-.1-51.8-1.2-69.6-1.6-24.6-3.9-48.4-5.6-56.9-.4-2.5-1.1-6.2-1.5-8.2-1.1-5.8-5.6-8.6-10.5-6.7Z"/></g></svg>