<?xml version="1.0" encoding="UTF-8"?><svg id="Laag_2" xmlns="http://www.w3.org/2000/svg" xmlns:xlink="http://www.w3.org/1999/xlink" viewBox="0 0 682.59 270.76"><defs><style>.cls-1{fill:#fff;}.cls-2{filter:url(#drop-shadow-1);}</style><filter id="drop-shadow-1" filterUnits="userSpaceOnUse"><feOffset dx="4" dy="4"/><feGaussianBlur result="blur" stdDeviation="4"/><feFlood flood-color="#000" flood-opacity=".75"/><feComposite in2="blur" operator="in"/><feComposite in="SourceGraphic"/></filter></defs><g id="Laag_1-2"><g class="cls-2"><path class="cls-1" d="M377.18,1.2c-6.6,1.6-11.4,4.6-16.4,10.3-7.6,8.6-9,17.6-11,71-.6,15-1.7,35-2.5,44.5-1.3,15.1-2.5,26.8-7.5,75.8-.6,5.3-1.1,16.1-1.2,24-.2,13.2,0,15,2.1,19.8,5.6,12.6,18.5,17.5,30.8,11.8,5.7-2.7,10.6-8.4,12.3-14.5,.6-2,1.5-10.4,2-18.6,1.1-16.9,1.1-17.2,4.5-52.9,1.4-14.3,2.7-26.2,3.1-26.5,.3-.3,3.5-.4,7.2-.3,10.7,.5,27.7-1.5,33-3.8,12.5-5.5,18.2-17.9,13.3-28.5-2.4-5.1-6.3-8.8-12.6-11.7-4.5-2.1-6.4-2.3-20.2-2.3-8.3,0-15.4-.3-15.8-.7-.4-.3-.1-5,.5-10.3,.8-5.7,1.1-15.9,.8-25.1l-.5-15.5,8.6,.8c23.7,2.2,83.7-.5,92.3-4.1,20-8.5,19.6-34.4-.6-42.1-5-1.9-8.4-1.9-43.6,.6-16.7,1.1-36.4,.5-55.5-1.7-14.1-1.6-16.3-1.6-23.1,0Z"/><path class="cls-1" d="M311.08,6.2c-8.1,2.6-14.3,9.8-16.3,18.8-.6,2.8-1.7,17.3-2.5,32.2-2.1,38.3-5.5,70.7-10.5,101.5-2,11.9-2.5,14-3.4,13-.7-.8-7.6-30.9-10-44.1-2.8-14.9-5.9-37.5-7.6-55.8-1.7-17-3.8-29.8-5.9-34.4-5.5-12.6-19.8-18-31.8-12.1-6.6,3.3-10.2,8.1-13,17.5-1.3,4.1-3.4,10.6-4.7,14.5-2.7,7.6-7.7,38.7-12.6,77.8-1.7,13.3-4.4,34.1-6,46.2-4.8,36.1-7.2,60.4-6.5,64.9,3.2,19.6,24.9,27.2,38.7,13.5,6.1-6.1,6.9-9.2,10.8-40.4,1.7-13.8,3.5-26.4,3.9-28,.8-2.9,.9-2.8,2.5,3,15.8,55.1,22.7,69,36.9,75,5,2.1,14.2,1.9,19.4-.4,6.2-2.9,11.7-9.2,15.1-17.4,8-19.1,20.2-80.5,25.6-129.2,4.7-41.2,7.6-93.9,5.6-100.9-3.2-11.7-16.3-18.8-27.7-15.2Z"/><path class="cls-1" d="M73.98,12.3c-1.8,.8-4.5,2.4-5.9,3.5-2.3,1.8-4,2-19.3,2-18.5,0-24.4,1.1-31.6,6.1-10.4,7.1-11.2,22.2-1.7,31,6.6,6.2,16.3,8.9,32,8.9h9.3v2.7c0,1.6-.9,9.3-2,17.3-1.7,11.7-2.2,24.4-3.1,66.5-.6,28.6-1.1,52.1-1.3,52.2-.1,.1-5.4-1.1-11.7-2.8-14.2-3.9-21.5-3.7-28.7,.8C3.38,204.6-.62,212.3,.08,219.6c1,10.1,7.7,17.8,19.4,22.2,18.3,7,57.6,13.9,94.3,16.6,5.2,.3,11.2,1.3,13.4,2,6.2,2.2,16.2,1.8,22.1-1,16.3-7.6,20.4-25.5,8.5-37.8-5.9-6-10.8-7.4-32-8.8-9.1-.5-19.1-1.3-22.2-1.6l-5.7-.6-.7-4.6c-.4-2.6-.1-9.8,.6-16.2,.7-6.9,1.5-34.3,1.9-68.7,.4-31.5,.9-57.5,1.2-57.7,.3-.3,7.7-1,16.5-1.6,19.5-1.3,44.1-3.7,51.1-5.1,7.1-1.4,12.9-5.8,15.9-12.2,4.5-9.8,2.5-20.1-5.5-26.8-7.2-6.3-13.6-7-36.1-4.4-6.9,.8-20,1.9-29.1,2.5l-16.7,1.1-5.4-3c-6.1-3.5-12-4-17.6-1.6Z"/><path class="cls-1" d="M582.18,35.3c-12.3,2.9-18,5.4-24.2,10.9-2.6,2.3-8.4,7.2-12.8,10.9-28.6,23.5-47,67-49.1,116.2-1,23.6,1.7,40.2,9.1,56,6.8,14.4,17.8,24.9,30.8,29.4,24.7,8.5,57.3-2.8,94.3-32.6,30.2-24.3,47.7-50.6,51.6-77.5,4.6-31.2-13.6-71.5-41.9-92.7-3.7-2.8-8.8-7.4-11.3-10.3-10.4-12-25.2-15.2-46.5-10.3Zm15.8,49.6c16.3,6.4,28.3,19.2,35.1,37.4,7.2,19.5,2,35.2-18.3,55.5-20.4,20.5-47.3,37-60.2,37-5,0-7.3-2.7-10.1-11.5-1.9-6-2.2-9.3-2.2-23,.1-41.7,15.1-77,39.5-93.2,7.5-5,8.7-5.2,16.2-2.2Z"/></g></g></svg>