<?xml version="1.0" encoding="UTF-8"?><svg id="Laag_2" xmlns="http://www.w3.org/2000/svg" xmlns:xlink="http://www.w3.org/1999/xlink" viewBox="0 0 290.9 668.94"><defs><style>.cls-1{fill:#fff;}.cls-2{fill:#0f0f0f;}.cls-3{filter:url(#drop-shadow-1);}</style><filter id="drop-shadow-1" filterUnits="userSpaceOnUse"><feOffset dx=".56" dy=".56"/><feGaussianBlur result="blur" stdDeviation=".56"/><feFlood flood-color="#000" flood-opacity=".75"/><feComposite in2="blur" operator="in"/><feComposite in="SourceGraphic"/></filter></defs><g id="Laag_2-2"><path class="cls-2" d="M190.66,.89c-51.95,.29-103.91,.3-155.86,.04C15.08,29.6-5.99,71.05,1.57,115.85c11.68,69.22,78.49,110.7,106.26,130.6,72.09,51.67,152.95,162.02,183.06,422.49V0c-33.41,.41-66.83,.71-100.24,.89Z"/></g><g id="wekr"><g class="cls-3"><path class="cls-1" d="M171.07,78.76c-.92,.22-1.6,.64-2.3,1.44-1.06,1.2-1.26,2.46-1.54,9.94-.08,2.1-.24,4.9-.35,6.23-.18,2.11-.35,3.75-1.05,10.62-.08,.74-.15,2.25-.17,3.36-.03,1.85,0,2.1,.29,2.77,.78,1.76,2.59,2.45,4.31,1.65,.8-.38,1.48-1.18,1.72-2.03,.08-.28,.21-1.46,.28-2.6,.15-2.37,.15-2.41,.63-7.41,.2-2,.38-3.67,.43-3.71,.04-.04,.49-.06,1.01-.04,1.5,.07,3.88-.21,4.62-.53,1.75-.77,2.55-2.51,1.86-3.99-.34-.71-.88-1.23-1.76-1.64-.63-.29-.9-.32-2.83-.32-1.16,0-2.16-.04-2.21-.1-.06-.04-.01-.7,.07-1.44,.11-.8,.15-2.23,.11-3.52l-.07-2.17,1.2,.11c3.32,.31,11.72-.07,12.93-.57,2.8-1.19,2.75-4.82-.08-5.9-.7-.27-1.18-.27-6.11,.08-2.34,.15-5.1,.07-7.77-.24-1.97-.22-2.28-.22-3.24,0Z"/><path class="cls-1" d="M161.82,79.46c-1.13,.36-2,1.37-2.28,2.63-.08,.39-.24,2.42-.35,4.51-.29,5.36-.77,9.9-1.47,14.22-.28,1.67-.35,1.96-.48,1.82-.1-.11-1.06-4.33-1.4-6.18-.39-2.09-.83-5.25-1.06-7.81-.24-2.38-.53-4.17-.83-4.82-.77-1.76-2.77-2.52-4.45-1.69-.92,.46-1.43,1.13-1.82,2.45-.18,.57-.48,1.48-.66,2.03-.38,1.06-1.08,5.42-1.76,10.9-.24,1.86-.62,4.78-.84,6.47-.67,5.06-1.01,8.46-.91,9.09,.45,2.75,3.49,3.81,5.42,1.89,.85-.85,.97-1.29,1.51-5.66,.24-1.93,.49-3.7,.55-3.92,.11-.41,.13-.39,.35,.42,2.21,7.72,3.18,9.66,5.17,10.5,.7,.29,1.99,.27,2.72-.06,.87-.41,1.64-1.29,2.11-2.44,1.12-2.67,2.83-11.27,3.59-18.09,.66-5.77,1.06-13.15,.78-14.13-.45-1.64-2.28-2.63-3.88-2.13Z"/><path class="cls-1" d="M128.61,80.32c-.25,.11-.63,.34-.83,.49-.32,.25-.56,.28-2.7,.28-2.59,0-3.42,.15-4.43,.85-1.46,.99-1.57,3.11-.24,4.34,.92,.87,2.28,1.25,4.48,1.25h1.3v.38c0,.22-.13,1.3-.28,2.42-.24,1.64-.31,3.42-.43,9.31-.08,4.01-.15,7.3-.18,7.31-.01,.01-.76-.15-1.64-.39-1.99-.55-3.01-.52-4.02,.11-.92,.57-1.48,1.65-1.39,2.67,.14,1.41,1.08,2.49,2.72,3.11,2.56,.98,8.07,1.95,13.21,2.32,.73,.04,1.57,.18,1.88,.28,.87,.31,2.27,.25,3.1-.14,2.28-1.06,2.86-3.57,1.19-5.29-.83-.84-1.51-1.04-4.48-1.23-1.27-.07-2.67-.18-3.11-.22l-.8-.08-.1-.64c-.06-.36-.01-1.37,.08-2.27,.1-.97,.21-4.8,.27-9.62,.06-4.41,.13-8.05,.17-8.08,.04-.04,1.08-.14,2.31-.22,2.73-.18,6.18-.52,7.16-.71,.99-.2,1.81-.81,2.23-1.71,.63-1.37,.35-2.82-.77-3.75-1.01-.88-1.9-.98-5.06-.62-.97,.11-2.8,.27-4.08,.35l-2.34,.15-.76-.42c-.85-.49-1.68-.56-2.46-.22Z"/><path class="cls-1" d="M199.79,83.54c-1.72,.41-2.52,.76-3.39,1.53-.36,.32-1.18,1.01-1.79,1.53-4.01,3.29-6.58,9.38-6.88,16.27-.14,3.31,.24,5.63,1.27,7.84,.95,2.02,2.49,3.49,4.31,4.12,3.46,1.19,8.02-.39,13.21-4.57,4.23-3.4,6.68-7.09,7.23-10.85,.64-4.37-1.9-10.01-5.87-12.98-.52-.39-1.23-1.04-1.58-1.44-1.46-1.68-3.53-2.13-6.51-1.44Zm2.21,6.95c2.28,.9,3.96,2.69,4.92,5.24,1.01,2.73,.28,4.93-2.56,7.77-2.86,2.87-6.62,5.18-8.43,5.18-.7,0-1.02-.38-1.41-1.61-.27-.84-.31-1.3-.31-3.22,.01-5.84,2.11-10.78,5.53-13.05,1.05-.7,1.22-.73,2.27-.31Z"/></g></g></svg>