<?xml version="1.0" standalone="no"?>
<!DOCTYPE svg PUBLIC "-//W3C//DTD SVG 20010904//EN"
 "http://www.w3.org/TR/2001/REC-SVG-20010904/DTD/svg10.dtd">
<svg version="1.0" xmlns="http://www.w3.org/2000/svg"
 width="743.000000pt" height="341.000000pt" viewBox="0 0 743.000000 341.000000"
 preserveAspectRatio="xMidYMid meet">

<g transform="translate(0.000000,341.000000) scale(0.100000,-0.100000)"
fill="#000000" stroke="none">
<path d="M3964 3046 c-66 -16 -114 -46 -164 -103 -76 -86 -90 -176 -110 -710
-6 -150 -17 -350 -25 -445 -13 -151 -25 -268 -75 -758 -6 -53 -11 -161 -12
-240 -2 -132 0 -150 21 -198 56 -126 185 -175 308 -118 57 27 106 84 123 145
6 20 15 104 20 186 11 169 11 172 45 529 14 143 27 262 31 265 3 3 35 4 72 3
107 -5 277 15 330 38 125 55 182 179 133 285 -24 51 -63 88 -126 117 -45 21
-64 23 -202 23 -83 0 -154 3 -158 7 -4 3 -1 50 5 103 8 57 11 159 8 251 l-5
155 86 -8 c237 -22 837 5 923 41 200 85 196 344 -6 421 -50 19 -84 19 -436 -6
-167 -11 -364 -5 -555 17 -141 16 -163 16 -231 0z"/>
<path d="M3303 2996 c-81 -26 -143 -98 -163 -188 -6 -28 -17 -173 -25 -322
-21 -383 -55 -707 -105 -1015 -20 -119 -25 -140 -34 -130 -7 8 -76 309 -100
441 -28 149 -59 375 -76 558 -17 170 -38 298 -59 344 -55 126 -198 180 -318
121 -66 -33 -102 -81 -130 -175 -13 -41 -34 -106 -47 -145 -27 -76 -77 -387
-126 -778 -17 -133 -44 -341 -60 -462 -48 -361 -72 -604 -65 -649 32 -196 249
-272 387 -135 61 61 69 92 108 404 17 138 35 264 39 280 8 29 9 28 25 -30 158
-551 227 -690 369 -750 50 -21 142 -19 194 4 62 29 117 92 151 174 80 191 202
805 256 1292 47 412 76 939 56 1009 -32 117 -163 188 -277 152z"/>
<path d="M932 2935 c-18 -8 -45 -24 -59 -35 -23 -18 -40 -20 -193 -20 -185 0
-244 -11 -316 -61 -104 -71 -112 -222 -17 -310 66 -62 163 -89 320 -89 l93 0
0 -27 c0 -16 -9 -93 -20 -173 -17 -117 -22 -244 -31 -665 -6 -286 -11 -521
-13 -522 -1 -1 -54 11 -117 28 -142 39 -215 37 -287 -8 -66 -41 -106 -118 -99
-191 10 -101 77 -178 194 -222 183 -70 576 -139 943 -166 52 -3 112 -13 134
-20 62 -22 162 -18 221 10 163 76 204 255 85 378 -59 60 -108 74 -320 88 -91
5 -191 13 -222 16 l-57 6 -7 46 c-4 26 -1 98 6 162 7 69 15 343 19 687 4 315
9 575 12 577 3 3 77 10 165 16 195 13 441 37 511 51 71 14 129 58 159 122 45
98 25 201 -55 268 -72 63 -136 70 -361 44 -69 -8 -200 -19 -291 -25 l-167 -11
-54 30 c-61 35 -120 40 -176 16z"/>
<path d="M6014 2705 c-123 -29 -180 -54 -242 -109 -26 -23 -84 -72 -128 -109
-286 -235 -470 -670 -491 -1162 -10 -236 17 -402 91 -560 68 -144 178 -249
308 -294 247 -85 573 28 943 326 302 243 477 506 516 775 46 312 -136 715
-419 927 -37 28 -88 74 -113 103 -104 120 -252 152 -465 103z m158 -496 c163
-64 283 -192 351 -374 72 -195 20 -352 -183 -555 -204 -205 -473 -370 -602
-370 -50 0 -73 27 -101 115 -19 60 -22 93 -22 230 1 417 151 770 395 932 75
50 87 52 162 22z"/>
</g>
</svg>
