<?xml version="1.0" encoding="UTF-8"?><svg id="Laag_2" xmlns="http://www.w3.org/2000/svg" viewBox="0 0 137.59 387.33"><g id="Laag_1-2"><path d="M13.76,1.97C6.66,4.37,1.16,10.27,.26,16.37c-2.3,14.8,10.6,25.3,36.3,29.7,4,.7,7.5,1.5,7.7,1.9s0,4.7-.6,9.6c-5.2,47.1-7.9,151.5-5.1,195.4,1.3,19.6,2.6,41.2,4.3,70,1.6,28.7,3,44.3,4.2,48.5,1.7,6.1,9.9,13.8,16.2,15.2,8,1.8,13.9,0,20.1-6.2,8.3-8.3,8.3-8.7,5.4-54-.6-8.8-1.5-23.4-2-32.5s-1.5-25.3-2.2-36c-1.7-25.2-1.6-101.7,.1-130,.7-11.8,1.5-34.2,1.8-49.6l.5-28.1,16.2,.1q16.2,.1,22.1-2.9c17.2-8.8,16.2-31.8-1.7-39.5-4.6-2-7.9-2.4-25.8-3.1C73.66,3.77,51.46,2.17,43.86,.87,34.76-.63,19.96-.13,13.76,1.97Z"/></g></svg>