<?xml version="1.0" standalone="no"?>
<!DOCTYPE svg PUBLIC "-//W3C//DTD SVG 20010904//EN"
 "http://www.w3.org/TR/2001/REC-SVG-20010904/DTD/svg10.dtd">
<svg version="1.0" xmlns="http://www.w3.org/2000/svg"
 width="814.000000pt" height="349.000000pt" viewBox="0 0 814.000000 349.000000"
 preserveAspectRatio="xMidYMid meet">

<g transform="translate(0.000000,349.000000) scale(0.100000,-0.100000)"
fill="#000000" stroke="none">
<path d="M4955 3191 c-103 -26 -221 -136 -335 -309 -42 -64 -86 -117 -108
-132 -55 -38 -78 -89 -107 -240 -14 -74 -48 -236 -75 -360 -96 -436 -124 -667
-124 -1030 -1 -237 0 -247 22 -293 82 -166 299 -167 384 -3 19 36 23 65 29
249 4 115 9 210 11 213 4 4 229 -165 358 -270 126 -102 259 -224 395 -362 139
-141 178 -164 269 -164 95 0 191 78 217 174 31 114 -49 276 -178 362 -32 21
-103 79 -158 129 -124 112 -251 219 -375 315 -52 40 -114 89 -138 108 l-43 34
60 64 c168 179 291 405 337 619 27 127 23 323 -9 462 -62 268 -188 424 -355
438 -26 2 -60 1 -77 -4z m-5 -748 c-16 -125 -64 -242 -147 -356 -20 -26 -37
-46 -40 -44 -6 7 54 209 88 294 44 111 89 197 99 187 5 -5 5 -40 0 -81z"/>
<path d="M3055 3084 c-94 -23 -151 -67 -192 -148 -14 -28 -57 -172 -94 -321
-38 -148 -93 -362 -124 -475 -107 -397 -152 -672 -142 -880 10 -222 62 -366
166 -463 86 -79 147 -101 281 -100 93 0 127 6 300 51 481 125 608 168 678 227
126 106 109 285 -32 351 -86 40 -165 34 -391 -30 -414 -117 -516 -141 -525
-126 -15 25 -23 136 -15 228 6 82 45 311 63 376 l8 30 140 2 c165 3 222 16
354 82 111 55 140 88 140 160 0 89 -55 138 -210 187 -65 21 -114 28 -208 32
l-124 6 6 31 c4 17 14 92 22 166 8 74 17 141 19 148 3 9 64 12 259 12 322 0
389 13 474 94 47 44 62 77 62 138 0 66 -30 119 -90 159 -88 59 -113 63 -475
65 -181 1 -339 0 -350 -2z"/>
<path d="M2305 3007 c-58 -19 -92 -44 -125 -92 -67 -98 -109 -274 -305 -1290
-26 -132 -48 -242 -51 -244 -7 -7 -33 65 -59 162 -14 51 -45 200 -70 333 -50
273 -81 381 -128 450 -77 116 -227 132 -323 35 -65 -64 -247 -399 -350 -641
-31 -74 -60 -139 -64 -143 -9 -10 -10 -5 -60 373 -63 471 -86 587 -139 705
-69 151 -187 208 -264 127 -47 -49 -49 -70 -33 -262 9 -96 25 -290 36 -430 38
-484 96 -910 165 -1221 48 -212 65 -257 119 -307 89 -82 203 -82 292 0 54 50
72 97 125 327 49 210 111 414 181 594 58 148 54 149 88 -13 48 -233 162 -514
293 -727 32 -50 72 -104 90 -119 150 -126 336 -63 415 142 39 102 138 500 187
754 98 510 187 944 210 1030 50 187 57 229 45 284 -6 28 -22 68 -35 88 -49 74
-157 112 -240 85z"/>
<path d="M6135 2958 c-114 -62 -142 -207 -165 -833 -37 -1040 -41 -1321 -16
-1376 66 -153 258 -196 368 -81 43 45 61 80 78 152 22 92 121 330 138 330 4 0
30 -15 57 -34 28 -18 172 -97 320 -176 312 -164 404 -222 512 -324 98 -92 131
-109 208 -109 131 0 225 95 225 225 -1 79 -29 131 -128 228 -108 107 -258 207
-502 335 -287 152 -383 205 -403 224 -17 17 -18 20 -2 57 20 48 68 112 197
261 201 231 248 308 248 408 0 75 -24 128 -77 177 -74 66 -189 73 -281 16 -46
-29 -332 -373 -432 -521 -25 -37 -47 -67 -50 -67 -3 0 -5 127 -5 283 -1 395
-26 602 -88 727 -24 49 -42 70 -72 87 -43 24 -98 29 -130 11z"/>
</g>
</svg>
