<?xml version="1.0" encoding="UTF-8"?><svg id="Laag_2" xmlns="http://www.w3.org/2000/svg" xmlns:xlink="http://www.w3.org/1999/xlink" viewBox="0 0 753.5 270.6"><defs><style>.cls-1{fill:#fff;}.cls-2{filter:url(#drop-shadow-1);}</style><filter id="drop-shadow-1" filterUnits="userSpaceOnUse"><feOffset dx="4" dy="4"/><feGaussianBlur result="blur" stdDeviation="4"/><feFlood flood-color="#000" flood-opacity=".75"/><feComposite in2="blur" operator="in"/><feComposite in="SourceGraphic"/></filter></defs><g id="Laag_1-2"><g class="cls-2"><path class="cls-1" d="M463,.5c-10.3,2.6-22.1,13.6-33.5,30.9-4.2,6.4-8.6,11.7-10.8,13.2-5.5,3.8-7.8,8.9-10.7,24-1.4,7.4-4.8,23.6-7.5,36-9.6,43.6-12.4,66.7-12.4,103-.1,23.7,0,24.7,2.2,29.3,8.2,16.6,29.9,16.7,38.4,.3,1.9-3.6,2.3-6.5,2.9-24.9,.4-11.5,.9-21,1.1-21.3,.4-.4,22.9,16.5,35.8,27,12.6,10.2,25.9,22.4,39.5,36.2,13.9,14.1,17.8,16.4,26.9,16.4s19.1-7.8,21.7-17.4c3.1-11.4-4.9-27.6-17.8-36.2-3.2-2.1-10.3-7.9-15.8-12.9-12.4-11.2-25.1-21.9-37.5-31.5-5.2-4-11.4-8.9-13.8-10.8l-4.3-3.4,6-6.4c16.8-17.9,29.1-40.5,33.7-61.9,2.7-12.7,2.3-32.3-.9-46.2C500,17.1,487.4,1.5,470.7,.1c-2.6-.2-6-.1-7.7,.4Zm-.5,74.8c-1.6,12.5-6.4,24.2-14.7,35.6-2,2.6-3.7,4.6-4,4.4-.6-.7,5.4-20.9,8.8-29.4,4.4-11.1,8.9-19.7,9.9-18.7,.5,.5,.5,4,0,8.1Z"/><path class="cls-1" d="M273,11.2c-9.4,2.3-15.1,6.7-19.2,14.8-1.4,2.8-5.7,17.2-9.4,32.1-3.8,14.8-9.3,36.2-12.4,47.5-10.7,39.7-15.2,67.2-14.2,88,1,22.2,6.2,36.6,16.6,46.3,8.6,7.9,14.7,10.1,28.1,10,9.3,0,12.7-.6,30-5.1,48.1-12.5,60.8-16.8,67.8-22.7,12.6-10.6,10.9-28.5-3.2-35.1-8.6-4-16.5-3.4-39.1,3-41.4,11.7-51.6,14.1-52.5,12.6-1.5-2.5-2.3-13.6-1.5-22.8,.6-8.2,4.5-31.1,6.3-37.6l.8-3,14-.2c16.5-.3,22.2-1.6,35.4-8.2,11.1-5.5,14-8.8,14-16,0-8.9-5.5-13.8-21-18.7-6.5-2.1-11.4-2.8-20.8-3.2l-12.4-.6,.6-3.1c.4-1.7,1.4-9.2,2.2-16.6s1.7-14.1,1.9-14.8c.3-.9,6.4-1.2,25.9-1.2,32.2,0,38.9-1.3,47.4-9.4,4.7-4.4,6.2-7.7,6.2-13.8,0-6.6-3-11.9-9-15.9-8.8-5.9-11.3-6.3-47.5-6.5-18.1-.1-33.9,0-35,.2Z"/><path class="cls-1" d="M198,18.9c-5.8,1.9-9.2,4.4-12.5,9.2-6.7,9.8-10.9,27.4-30.5,129-2.6,13.2-4.8,24.2-5.1,24.4-.7,.7-3.3-6.5-5.9-16.2-1.4-5.1-4.5-20-7-33.3-5-27.3-8.1-38.1-12.8-45-7.7-11.6-22.7-13.2-32.3-3.5-6.5,6.4-24.7,39.9-35,64.1-3.1,7.4-6,13.9-6.4,14.3-.9,1-1,.5-6-37.3-6.3-47.1-8.6-58.7-13.9-70.5-6.9-15.1-18.7-20.8-26.4-12.7C-.5,46.3-.7,48.4,.9,67.6c.9,9.6,2.5,29,3.6,43,3.8,48.4,9.6,91,16.5,122.1,4.8,21.2,6.5,25.7,11.9,30.7,8.9,8.2,20.3,8.2,29.2,0,5.4-5,7.2-9.7,12.5-32.7,4.9-21,11.1-41.4,18.1-59.4,5.8-14.8,5.4-14.9,8.8,1.3,4.8,23.3,16.2,51.4,29.3,72.7,3.2,5,7.2,10.4,9,11.9,15,12.6,33.6,6.3,41.5-14.2,3.9-10.2,13.8-50,18.7-75.4,9.8-51,18.7-94.4,21-103,5-18.7,5.7-22.9,4.5-28.4-.6-2.8-2.2-6.8-3.5-8.8-4.9-7.4-15.7-11.2-24-8.5Z"/><path class="cls-1" d="M581,23.8c-11.4,6.2-14.2,20.7-16.5,83.3-3.7,104-4.1,132.1-1.6,137.6,6.6,15.3,25.8,19.6,36.8,8.1,4.3-4.5,6.1-8,7.8-15.2,2.2-9.2,12.1-33,13.8-33,.4,0,3,1.5,5.7,3.4,2.8,1.8,17.2,9.7,32,17.6,31.2,16.4,40.4,22.2,51.2,32.4,9.8,9.2,13.1,10.9,20.8,10.9,13.1,0,22.5-9.5,22.5-22.5-.1-7.9-2.9-13.1-12.8-22.8-10.8-10.7-25.8-20.7-50.2-33.5-28.7-15.2-38.3-20.5-40.3-22.4-1.7-1.7-1.8-2-.2-5.7,2-4.8,6.8-11.2,19.7-26.1,20.1-23.1,24.8-30.8,24.8-40.8,0-7.5-2.4-12.8-7.7-17.7-7.4-6.6-18.9-7.3-28.1-1.6-4.6,2.9-33.2,37.3-43.2,52.1-2.5,3.7-4.7,6.7-5,6.7s-.5-12.7-.5-28.3c-.1-39.5-2.6-60.2-8.8-72.7-2.4-4.9-4.2-7-7.2-8.7-4.3-2.4-9.8-2.9-13-1.1Z"/></g></g></svg>