<?xml version="1.0" encoding="UTF-8"?><svg id="Laag_2" xmlns="http://www.w3.org/2000/svg" xmlns:xlink="http://www.w3.org/1999/xlink" viewBox="0 0 180.29 68"><defs><style>.cls-1{fill:#fff;}.cls-2{fill:none;stroke:#fff;stroke-linecap:round;stroke-linejoin:round;stroke-width:5.74px;}.cls-3{filter:url(#drop-shadow-1);}</style><filter id="drop-shadow-1" filterUnits="userSpaceOnUse"><feOffset dx=".56" dy=".56"/><feGaussianBlur result="blur" stdDeviation=".56"/><feFlood flood-color="#000" flood-opacity=".75"/><feComposite in2="blur" operator="in"/><feComposite in="SourceGraphic"/></filter></defs><g id="wekr"><g class="cls-3"><path class="cls-1" d="M64.84,.07c-1.44,.36-3.1,1.9-4.69,4.33-.59,.9-1.2,1.64-1.51,1.85-.77,.53-1.09,1.25-1.5,3.36-.2,1.04-.67,3.31-1.05,5.04-1.34,6.11-1.74,9.34-1.74,14.43-.01,3.32,0,3.46,.31,4.1,1.15,2.32,4.19,2.34,5.38,.04,.27-.5,.32-.91,.41-3.49,.06-1.61,.13-2.94,.15-2.98,.06-.06,3.21,2.31,5.01,3.78,1.76,1.43,3.63,3.14,5.53,5.07,1.95,1.97,2.49,2.3,3.77,2.3s2.67-1.09,3.04-2.44c.43-1.6-.69-3.87-2.49-5.07-.45-.29-1.44-1.11-2.21-1.81-1.74-1.57-3.52-3.07-5.25-4.41-.73-.56-1.6-1.25-1.93-1.51l-.6-.48,.84-.9c2.35-2.51,4.08-5.67,4.72-8.67,.38-1.78,.32-4.52-.13-6.47-.87-3.75-2.63-5.94-4.97-6.13-.36-.03-.84-.01-1.08,.06Zm-.07,10.48c-.22,1.75-.9,3.39-2.06,4.99-.28,.36-.52,.64-.56,.62-.08-.1,.76-2.93,1.23-4.12,.62-1.55,1.25-2.76,1.39-2.62,.07,.07,.07,.56,0,1.13Z"/><path class="cls-1" d="M38.23,1.57c-1.32,.32-2.11,.94-2.69,2.07-.2,.39-.8,2.41-1.32,4.5-.53,2.07-1.3,5.07-1.74,6.65-1.5,5.56-2.13,9.41-1.99,12.32,.14,3.11,.87,5.13,2.32,6.48,1.2,1.11,2.06,1.41,3.94,1.4,1.3,0,1.78-.08,4.2-.71,6.74-1.75,8.52-2.35,9.5-3.18,1.76-1.48,1.53-3.99-.45-4.92-1.2-.56-2.31-.48-5.48,.42-5.8,1.64-7.23,1.97-7.35,1.76-.21-.35-.32-1.9-.21-3.19,.08-1.15,.63-4.36,.88-5.27l.11-.42,1.96-.03c2.31-.04,3.11-.22,4.96-1.15,1.55-.77,1.96-1.23,1.96-2.24,0-1.25-.77-1.93-2.94-2.62-.91-.29-1.6-.39-2.91-.45l-1.74-.08,.08-.43c.06-.24,.2-1.29,.31-2.32s.24-1.97,.27-2.07c.04-.13,.9-.17,3.63-.17,4.51,0,5.45-.18,6.64-1.32,.66-.62,.87-1.08,.87-1.93,0-.92-.42-1.67-1.26-2.23-1.23-.83-1.58-.88-6.65-.91-2.53-.01-4.75,0-4.9,.03Z"/><path class="cls-1" d="M27.73,2.65c-.81,.27-1.29,.62-1.75,1.29-.94,1.37-1.53,3.84-4.27,18.07-.36,1.85-.67,3.39-.71,3.42-.1,.1-.46-.91-.83-2.27-.2-.71-.63-2.8-.98-4.66-.7-3.82-1.13-5.34-1.79-6.3-1.08-1.62-3.18-1.85-4.52-.49-.91,.9-3.46,5.59-4.9,8.98-.43,1.04-.84,1.95-.9,2-.13,.14-.14,.07-.84-5.22-.88-6.6-1.2-8.22-1.95-9.87-.97-2.11-2.62-2.91-3.7-1.78-.66,.69-.69,.98-.46,3.67,.13,1.34,.35,4.06,.5,6.02,.53,6.78,1.34,12.74,2.31,17.1,.67,2.97,.91,3.6,1.67,4.3,1.25,1.15,2.84,1.15,4.09,0,.76-.7,1.01-1.36,1.75-4.58,.69-2.94,1.55-5.8,2.53-8.32,.81-2.07,.76-2.09,1.23,.18,.67,3.26,2.27,7.2,4.1,10.18,.45,.7,1.01,1.46,1.26,1.67,2.1,1.76,4.71,.88,5.81-1.99,.55-1.43,1.93-7,2.62-10.56,1.37-7.14,2.62-13.22,2.94-14.43,.7-2.62,.8-3.21,.63-3.98-.08-.39-.31-.95-.49-1.23-.69-1.04-2.2-1.57-3.36-1.19Z"/><path class="cls-1" d="M81.37,3.33c-1.6,.87-1.99,2.9-2.31,11.67-.52,14.57-.57,18.5-.22,19.27,.92,2.14,3.61,2.75,5.15,1.13,.6-.63,.85-1.12,1.09-2.13,.31-1.29,1.69-4.62,1.93-4.62,.06,0,.42,.21,.8,.48,.39,.25,2.41,1.36,4.48,2.46,4.37,2.3,5.66,3.11,7.17,4.54,1.37,1.29,1.83,1.53,2.91,1.53,1.83,0,3.15-1.33,3.15-3.15-.01-1.11-.41-1.83-1.79-3.19-1.51-1.5-3.61-2.9-7.03-4.69-4.02-2.13-5.36-2.87-5.64-3.14-.24-.24-.25-.28-.03-.8,.28-.67,.95-1.57,2.76-3.66,2.82-3.24,3.47-4.31,3.47-5.71,0-1.05-.34-1.79-1.08-2.48-1.04-.92-2.65-1.02-3.94-.22-.64,.41-4.65,5.22-6.05,7.3-.35,.52-.66,.94-.7,.94s-.07-1.78-.07-3.96c-.01-5.53-.36-8.43-1.23-10.18-.34-.69-.59-.98-1.01-1.22-.6-.34-1.37-.41-1.82-.15Z"/></g><path class="cls-2" d="M177.42,49.73c-.84,5.13-1.67,10.26-2.51,15.4l-16.64-2.52c5.55,.84,11.09,1.68,16.64,2.52-4.66-7.66-13.54-19.74-28.71-28.82-5.85-3.5-11.46-5.85-16.36-7.47"/></g></svg>