<?xml version="1.0" encoding="UTF-8"?><svg id="Laag_2" xmlns="http://www.w3.org/2000/svg" viewBox="0 0 166.4 506.49"><g id="Laag_1-2"><path d="M16.29,1.49c-4.7,2.4-7.2,5.9-9.9,13.5-1.5,4.1-1.8,8.2-1.7,23.1,.1,17.9,.7,23.5,4.5,42.9,3.7,18.9,12.5,47.3,23.8,77.5,1.7,4.7,5.2,14.8,7.6,22.5,7.8,24.2,9,26.9,14.6,32,2.8,2.5,5.4,4.5,5.8,4.5s2.4,.7,4.4,1.5c3.1,1.3,3.4,1.8,2.6,3.8-.5,1.2-3.4,10.3-6.5,20.2s-6.5,20.5-7.4,23.5c-2,5.9-2.9,8.8-9.8,31-16.5,53.2-29.3,102-35.4,135-2.5,13.6-3.8,20.2-6.8,34.8-2.9,14-2.8,20.5,.4,26.9,3.6,7.1,11.5,12.3,18.7,12.3,10.3,0,19.8-7.6,22.9-18.4,.8-2.6,4.9-22.6,8.8-43.1,2.5-12.6,8.6-40.2,11.6-52,5.1-19.8,12.7-47.6,14.4-52.5,.5-1.4,1.8-5.7,2.9-9.5,2.3-7.7,11.2-36.4,13.5-43.5,.8-2.5,2.4-7.4,3.5-11,4.1-13.2,13.6-42.9,18.7-58.5,2.9-8.8,8.3-25.5,12-37,3.7-11.6,7.5-23.5,8.5-26.5s3.3-10.2,5-16,4.2-14.1,5.6-18.5c1.3-4.4,2.9-9.8,3.5-12s1.5-5.1,2-6.5c1.2-3.7,8.5-34.3,10.5-44,1-4.9,1.8-13.4,1.8-20,.1-12.6-1-16.2-6.6-20.3-3.9-2.9-12.3-3.4-16.8-.9-7.1,3.9-10.4,10.2-22.8,44.2-4.9,13.4-14.3,42.4-21.3,66-6.1,20.5-13.2,41.1-14,40.3-.4-.4-2.4-5.3-4.4-10.8s-4.8-13.2-6.2-17c-10.2-28.1-16.6-49.1-21.3-70.3-.6-2.3-1.5-6.3-2.1-9-.6-2.6-1.4-6.5-1.9-8.7-3.7-16.8-9-34.9-12.3-41.4C32.59,1.19,23.69-2.21,16.29,1.49Z"/></g></svg>